<?xml version="1.0" standalone="no"?><!DOCTYPE svg PUBLIC "-//W3C//DTD SVG 1.1//EN" "http://www.w3.org/Graphics/SVG/1.1/DTD/svg11.dtd"><svg t="1764832352500" class="icon" viewBox="0 0 1024 1024" version="1.1" xmlns="http://www.w3.org/2000/svg" p-id="15669" xmlns:xlink="http://www.w3.org/1999/xlink" width="200" height="200"><path d="M298.678857 341.321143a213.321143 213.321143 0 0 1 426.678857 0v341.357714a213.321143 213.321143 0 0 1-213.321143 213.321143 42.678857 42.678857 0 0 0 0 85.321143 298.715429 298.715429 0 0 0 296.155429-259.766857 213.394286 213.394286 0 0 0 0-419.108572 298.715429 298.715429 0 0 0-592.310857 0 213.394286 213.394286 0 0 0 40.082286 422.875429h0.073142c23.552 0 42.642286-19.090286 42.642286-42.642286V341.321143z m-85.321143 291.401143a128.036571 128.036571 0 0 1 0-241.444572V632.685714zM810.678857 391.314286a128.036571 128.036571 0 0 1 0 241.444571v-241.444571z" fill="#2c2c2c" p-id="15670"></path></svg>