<?xml version="1.0" standalone="no"?><!DOCTYPE svg PUBLIC "-//W3C//DTD SVG 1.1//EN" "http://www.w3.org/Graphics/SVG/1.1/DTD/svg11.dtd"><svg t="1764834636097" class="icon" viewBox="0 0 1024 1024" version="1.1" xmlns="http://www.w3.org/2000/svg" p-id="24932" xmlns:xlink="http://www.w3.org/1999/xlink" width="200" height="200"><path d="M198.48 195.45h626.67c24.33-1.33 43.7-20.86 44.84-45.2 0-23.19-16.58-45.12-50.39-45.12H204.2c-36.37 0-50.39 21.85-50.39 45.12a44.357 44.357 0 0 0 12.78 32.24c8.43 8.55 19.95 13.23 31.89 12.96z m671.34 41.1h-716.1L64.21 414.49c0 54.93 50.15 102.13 111.89 102.13s111.89-47.3 111.89-102.13c0 54.93 49.72 102.13 111.89 102.13s111.89-47.3 111.89-102.13c0 54.93 49.72 102.13 111.89 102.13s111.89-47.3 111.89-102.13c0 54.93 49.72 102.13 111.89 102.13s111.89-47.3 111.89-102.13l-89.51-177.91v-0.03z m-501.43 585.2H243.56V574.96c-7.2 2.75-14.83-1.77-22.38 0-1.83 0-20.63-0.41-22.46 0h-22.3c-7.44 0.84-14.94 0.84-22.38 0v298.71c1.01 24.33 20.36 43.9 44.67 45.2h626.67c24.33-1.3 43.7-20.86 44.76-45.2V574.96c-7.46 0.84-15 0.84-22.46 0H825.3c-7.63-1.77-15.32 2.75-22.46 0h-22.38v246.79H649.11" p-id="24933"></path><path d="M512 536.96c-52.62 0-95.28 42.9-95.28 95.85 0 26.46 10.67 50.42 27.9 67.77L512 768.35l67.38-67.77a95.83 95.83 0 0 0 27.9-67.77c0-52.95-42.66-95.85-95.28-95.85z m0 138.42c-23.45-0.06-42.42-19.12-42.36-42.58v-0.03c-0.07-23.45 18.88-42.51 42.33-42.58h0.03c23.45 0.06 42.42 19.12 42.36 42.58v0.03c0.08 23.45-18.87 42.51-42.32 42.59H512v-0.01z" p-id="24934"></path></svg>