<?xml version="1.0" standalone="no"?><!DOCTYPE svg PUBLIC "-//W3C//DTD SVG 1.1//EN" "http://www.w3.org/Graphics/SVG/1.1/DTD/svg11.dtd"><svg t="1764832490074" class="icon" viewBox="0 0 1024 1024" version="1.1" xmlns="http://www.w3.org/2000/svg" p-id="19541" xmlns:xlink="http://www.w3.org/1999/xlink" width="200" height="200"><path d="M511.5687 1022.586827a511.286065 511.286065 0 1 1 511.286064-508.742353 511.851334 511.851334 0 0 1-511.286064 508.742353m0-949.369758a437.801058 437.801058 0 1 0 437.801058 440.627405A438.366328 438.366328 0 0 0 511.5687 74.630242" fill="#2c2c2c" p-id="19542"></path><path d="M504.785468 646.117485a36.742503 36.742503 0 0 1-36.742503-36.742503c0-77.159257 43.525735-116.162837 78.855065-147.535282a156.296956 156.296956 0 0 0 46.069446-54.265851 79.702969 79.702969 0 0 0-7.065866-76.311353 98.07422 98.07422 0 0 0-81.964046-39.56885 87.899373 87.899373 0 0 0-61.896986 28.263464 128.598761 128.598761 0 0 0-35.046695 91.008354 36.742503 36.742503 0 1 1-73.485007 0 202.083768 202.083768 0 0 1 55.113755-144.143666 160.819111 160.819111 0 0 1 113.053856-50.026332h1.695808a171.276592 171.276592 0 0 1 141.31732 71.506564 152.905341 152.905341 0 0 1 16.675444 146.404744 219.324481 219.324481 0 0 1-65.288602 81.964046c-34.764061 31.08981-54.265851 50.591601-54.265851 92.421528a36.742503 36.742503 0 0 1-36.742503 36.742503zM561.312396 735.712667a56.526928 56.526928 0 1 1-56.526928-56.526929 56.526928 56.526928 0 0 1 56.526928 56.526929" fill="#2c2c2c" p-id="19543"></path></svg>