<?xml version="1.0" standalone="no"?><!DOCTYPE svg PUBLIC "-//W3C//DTD SVG 1.1//EN" "http://www.w3.org/Graphics/SVG/1.1/DTD/svg11.dtd"><svg t="1764832199551" class="icon" viewBox="0 0 1024 1024" version="1.1" xmlns="http://www.w3.org/2000/svg" p-id="14405" xmlns:xlink="http://www.w3.org/1999/xlink" width="200" height="200"><path d="M256 572.235294a30.117647 30.117647 0 1 1 0-60.235294h481.882353a30.117647 30.117647 0 1 1 0 60.235294H256z m0 180.705882a30.117647 30.117647 0 1 1 0-60.235294h331.294118a30.117647 30.117647 0 1 1 0 60.235294H256z m0-361.411764a30.117647 30.117647 0 1 1 0-60.235294h481.882353a30.117647 30.117647 0 1 1 0 60.235294H256z m90.352941-331.294118v90.352941h331.294118V60.235294H346.352941z m391.529412 0h210.823529a30.117647 30.117647 0 0 1 30.117647 30.117647v903.529412a30.117647 30.117647 0 0 1-30.117647 30.117647H75.294118a30.117647 30.117647 0 0 1-30.117647-30.117647V90.352941a30.117647 30.117647 0 0 1 30.117647-30.117647h210.823529a60.235294 60.235294 0 0 1 60.235294-60.235294h331.294118a60.235294 60.235294 0 0 1 60.235294 60.235294z m0 60.235294v30.117647a60.235294 60.235294 0 0 1-60.235294 60.235294H346.352941a60.235294 60.235294 0 0 1-60.235294-60.235294V120.470588H105.411765v843.294118h813.17647V120.470588h-180.705882z" fill="#2c2c2c" p-id="14406"></path></svg>