<?xml version="1.0" standalone="no"?><!DOCTYPE svg PUBLIC "-//W3C//DTD SVG 1.1//EN" "http://www.w3.org/Graphics/SVG/1.1/DTD/svg11.dtd"><svg t="1764832115867" class="icon" viewBox="0 0 1170 1024" version="1.1" xmlns="http://www.w3.org/2000/svg" p-id="13188" xmlns:xlink="http://www.w3.org/1999/xlink" width="228.515625" height="200"><path d="M1002.057143 73.142857H168.228571C117.028571 73.142857 73.142857 117.028571 73.142857 168.228571v687.542858c0 51.2 43.885714 95.085714 95.085714 95.085714h833.828572c51.2 0 95.085714-43.885714 95.085714-95.085714V168.228571c0-51.2-43.885714-95.085714-95.085714-95.085714z m-833.828572 65.828572h833.828572c14.628571 0 29.257143 14.628571 29.257143 29.257142v365.714286c-51.2-36.571429-138.971429-95.085714-248.685715-95.085714C687.542857 438.857143 585.142857 512 497.371429 585.142857c-73.142857 58.514286-146.285714 109.714286-197.485715 109.714286-73.142857 0-138.971429-51.2-160.914285-73.142857V168.228571c0-21.942857 14.628571-29.257143 29.257142-29.257142z m833.828572 746.057142H168.228571c-14.628571 0-29.257143-14.628571-29.257142-29.257142v-146.285715c36.571429 21.942857 95.085714 51.2 153.6 51.2 73.142857 0 153.6-58.514286 241.371428-124.342857 87.771429-65.828571 175.542857-131.657143 248.685714-131.657143 138.971429 0 248.685714 117.028571 248.685715 117.028572v234.057143c0 21.942857-14.628571 29.257143-29.257143 29.257142zM394.971429 512c73.142857 0 131.657143-58.514286 131.657142-124.342857 0-65.828571-58.514286-124.342857-131.657142-124.342857s-131.657143 51.2-131.657143 124.342857c0 65.828571 58.514286 124.342857 131.657143 124.342857z m0-190.171429c36.571429 0 65.828571 29.257143 65.828571 65.828572s-29.257143 65.828571-65.828571 65.828571-65.828571-29.257143-65.828572-65.828571 29.257143-65.828571 65.828572-65.828572z" p-id="13189"></path></svg>