<?xml version="1.0" standalone="no"?><!DOCTYPE svg PUBLIC "-//W3C//DTD SVG 1.1//EN" "http://www.w3.org/Graphics/SVG/1.1/DTD/svg11.dtd"><svg t="1764666636761" class="icon" viewBox="0 0 1024 1024" version="1.1" xmlns="http://www.w3.org/2000/svg" p-id="16188" xmlns:xlink="http://www.w3.org/1999/xlink" width="200" height="200"><path d="M3.968992 3.968992l1016.062016 0 0 1016.062016-1016.062016 0 0-1016.062016Z" fill="#FFFFFF" p-id="16189"></path><path d="M196.893767 690.922171l167.618481-43.341395 32.545736 25.115783 69.949519 187.622202 23.401178-108.337612-27.179659-21.30555 16.892031-50.676093 24.353736 0 22.639132 0 24.353736 0 16.860279 50.676093-27.147907 21.30555 24.321984 112.497116 63.56738-191.749953 32.228217-25.242791 173.873612 43.341395 8.763535 2.159132 5.556589 7.20769c5.778853 7.429953 11.049674 15.082171 15.875969 22.893147 34.038078 75.379101 56.740713 159.267721 33.75231 277.416682l-22.76614 0L150.218419 1000.503566 128.404837 1000.503566l-3.810233-21.559566c-11.748217-66.456806-11.906977-121.990946-1.905116-167.904248 10.47814-48.16769 32.069457-85.761984 63.218109-114.211721l4.667535-4.286512L196.893767 690.922171 196.893767 690.922171zM253.507473 371.211907l26.417612 0 8.382512 56.581953c9.716093 52.581209 31.62493 99.859845 61.821023 137.041364 42.801612 52.771721 102.272992 85.539721 168.063008 85.539721l0 0c65.790016 0 125.293147-32.768 168.09476-85.539721 29.402295-36.260713 50.898357-82.07876 61.027225-133.008868l10.509891-60.61445 17.622326 0 21.337302 0 34.89538 0L831.678512 304.945612l-41.817302-12.097488C793.703194 228.423442 758.649054 126.531473 698.542636 87.952868c-10.763907 49.818791-31.656682 89.508713-62.773581 119.006264-3.905488 0-7.779225 0-11.684713 0 27.560682-62.487814 40.832992-108.845643 42.801612-142.53445C625.830698 38.451597 576.837457 23.496434 522.509891 23.496434c-56.962977 0-110.083969 16.415752-154.917705 44.706729 2.698915 33.371287 15.971225 78.586047 42.515845 138.724217-3.873736 0-7.779225 0-11.652961 0-30.48186-28.894264-51.12062-67.568124-62.106791-115.958078C275.606822 128.11907 239.346109 228.328186 240.203411 291.80031L196.131721 304.945612l0 66.298047L253.507473 371.243659 253.507473 371.211907zM334.792434 371.211907l123.959566 0 241.50524 0 1.333581 0c-1.111318 62.900589-22.162853 119.736558-55.597643 160.88707-33.117271 40.864744-78.395535 66.234543-127.80155 66.234543l0 0c-49.406016 0-94.684279-25.369798-127.80155-66.234543C356.955287 490.948465 335.872 434.144248 334.792434 371.211907z" p-id="16190" data-spm-anchor-id="a313x.search_index.0.i16.4a243a81Crf3jW" class="selected" fill="#8a8a8a"></path></svg>