<?xml version="1.0" standalone="no"?><!DOCTYPE svg PUBLIC "-//W3C//DTD SVG 1.1//EN" "http://www.w3.org/Graphics/SVG/1.1/DTD/svg11.dtd"><svg t="1764667256664" class="icon" viewBox="0 0 1024 1024" version="1.1" xmlns="http://www.w3.org/2000/svg" p-id="18347" xmlns:xlink="http://www.w3.org/1999/xlink" width="200" height="200"><path d="M935.936 854.016c-14.848-39.424-36.864-73.728-65.536-101.376-48.64-47.104-117.76-76.8-211.456-91.648l-13.312-2.048-7.168 13.312c-18.432 33.792-32.768 70.656-46.592 105.472-5.12 13.312-10.24 26.112-15.36 38.4 0-13.312 0-29.184-0.512-47.616v-57.856h-133.12l1.024 26.112c1.536 29.696 2.56 51.2 3.072 68.096-17.92-46.592-36.864-93.184-60.928-133.632l-7.168-12.288-12.288 2.048C272.896 675.84 204.8 705.536 156.16 752.64c-28.16 27.648-50.176 61.44-65.024 100.864-15.872 41.472-24.576 90.112-25.6 144.896l-0.512 25.088h894.464v-24.576c-0.512-54.272-8.192-103.424-23.552-144.896z" p-id="18348" data-spm-anchor-id="a313x.search_index.0.i20.4a243a81Crf3jW" class="selected" fill="#707070"></path><path d="M240.128 386.048c4.096 33.792 23.552 63.488 51.2 78.848 18.944 53.76 46.08 101.888 76.8 136.704 40.96 46.592 90.112 71.168 141.824 71.168 3.072 0 6.656 0 9.728-0.512 55.296-3.072 104.448-30.208 145.92-79.36 35.328-42.496 58.88-94.208 72.704-133.12 20.992-9.728 36.352-28.672 41.984-54.272 7.68-32.768-2.048-69.632-23.552-93.696 3.072-51.2 22.528-82.432 26.112-136.704 3.584-53.76-14.336-113.152-88.064-146.432-44.032-19.968-143.36-29.696-195.072-28.16C449.024 1.536 348.16 18.944 307.2 45.568c-36.352 24.064-54.784 57.856-61.44 111.616-5.12 43.008 9.728 111.104 14.336 160.256-15.36 16.896-23.04 41.472-19.968 68.608z" p-id="18349" data-spm-anchor-id="a313x.search_index.0.i19.4a243a81Crf3jW" class="selected" fill="#707070"></path></svg>