<?xml version="1.0" standalone="no"?><!DOCTYPE svg PUBLIC "-//W3C//DTD SVG 1.1//EN" "http://www.w3.org/Graphics/SVG/1.1/DTD/svg11.dtd"><svg t="1764817846185" class="icon" viewBox="0 0 1024 1024" version="1.1" xmlns="http://www.w3.org/2000/svg" p-id="5563" xmlns:xlink="http://www.w3.org/1999/xlink" width="200" height="200"><path d="M860.2 159.3H729.7c-19.8-94.7-121.3-95-204.8-95-83.5 0-185.1 0.3-204.9 95H166c-28.9 0-52.4 23.5-52.4 52.4v695.5c0 28.9 23.5 52.4 52.4 52.4h694.1c28.9 0 52.4-23.5 52.4-52.4V211.7c0-28.9-23.4-52.4-52.3-52.4z m-481 35.5c0-1.4 0.1-2.6 0.1-4 1.5-55.5 33.6-63.6 145.5-63.6s144 8.2 145.5 63.6c0 1.3 0.1 2.6 0.1 4v31.4H379.2v-31.4z m145.7 592H289.7c-17.4 0-31.4-14.1-31.4-31.4s14.1-31.4 31.4-31.4h235.2c17.4 0 31.4 14.1 31.4 31.4s-14 31.4-31.4 31.4z m118-167.6H289.7c-17.4 0-31.4-14.1-31.4-31.4s14.1-31.4 31.4-31.4h353.2c17.4 0 31.4 14.1 31.4 31.4s-14.1 31.4-31.4 31.4z m118.2-153.7H289.7c-17.4 0-31.4-14.1-31.4-31.4s14.1-31.4 31.4-31.4h471.5c17.4 0 31.4 14.1 31.4 31.4s-14.1 31.4-31.5 31.4z" p-id="5564"></path></svg>