<?xml version="1.0" standalone="no"?><!DOCTYPE svg PUBLIC "-//W3C//DTD SVG 1.1//EN" "http://www.w3.org/Graphics/SVG/1.1/DTD/svg11.dtd"><svg t="1764664715171" class="icon" viewBox="0 0 1024 1024" version="1.1" xmlns="http://www.w3.org/2000/svg" p-id="4786" xmlns:xlink="http://www.w3.org/1999/xlink" width="200" height="200"><path d="M897.024 1012.224H126.976c-28.16 0-51.2-23.04-51.2-51.2V190.976c0-28.16 23.04-51.2 51.2-51.2h102.4v76.8c0 15.36 10.24 25.6 25.6 25.6H768c15.36 0 25.6-10.24 25.6-25.6v-76.8h102.4c28.16 0 51.2 23.04 51.2 51.2v770.048c1.024 28.16-22.016 51.2-50.176 51.2zM742.912 345.088H281.088c-15.36 0-25.6 10.24-25.6 25.6s10.24 25.6 25.6 25.6h461.824c15.36 0 25.6-10.24 25.6-25.6s-10.24-25.6-25.6-25.6z m0 205.312H281.088c-15.36 0-25.6 10.24-25.6 25.6s10.24 25.6 25.6 25.6h461.824c15.36 0 25.6-10.24 25.6-25.6s-10.24-25.6-25.6-25.6z m0 205.312H281.088c-15.36 0-25.6 10.24-25.6 25.6s10.24 25.6 25.6 25.6h461.824c15.36 0 25.6-10.24 25.6-25.6s-10.24-25.6-25.6-25.6z m-25.6-564.736H306.688c-15.36 0-25.6-10.24-25.6-25.6s10.24-25.6 25.6-25.6h76.8c0-71.68 56.32-128.512 128.512-128.512s128.512 56.32 128.512 128.512h76.8c15.36 0 25.6 10.24 25.6 25.6s-10.24 25.6-25.6 25.6z m-205.312-128c-43.52 0-76.8 33.28-76.8 76.8h153.6c0-43.52-33.28-76.8-76.8-76.8z" fill="#939DA6" p-id="4787"></path></svg>