<?xml version="1.0" standalone="no"?><!DOCTYPE svg PUBLIC "-//W3C//DTD SVG 1.1//EN" "http://www.w3.org/Graphics/SVG/1.1/DTD/svg11.dtd"><svg t="1764664771418" class="icon" viewBox="0 0 1024 1024" version="1.1" xmlns="http://www.w3.org/2000/svg" p-id="5883" xmlns:xlink="http://www.w3.org/1999/xlink" width="200" height="200"><path d="M504.384 154.608l-348.8 235.808a8.192 8.192 0 0 0-3.584 6.784v214.08a28 28 0 0 1-56 0v-214.08c0-21.84 10.736-42.24 28.608-54.304L477.76 104.16a47.264 47.264 0 0 1 52.352-0.48l368.32 239.328A65.488 65.488 0 0 1 928 397.968v469.184C928 903.152 899.36 928 864 928H490.352a26.352 26.352 0 1 1 0-52.704H864c4.416 0 8-3.648 8-8.144V397.968a8.192 8.192 0 0 0-3.696-6.88L504.384 154.624z m166.224 479.04c8.048 0 14.688 5.808 14.72 12.96 0 7.056-6.592 12.864-14.688 12.864l-255.856-0.032c-6.88 0.4-13.152-5.072-14.192-12.592L368.144 425.92h-33.456c-8.096 0-14.688-5.84-14.688-12.96 0-7.136 6.64-12.944 14.688-12.944h42.672c0.784 0 1.536 0.048 2.272 0.16 6.512 0.08 12.32 5.408 13.328 12.592l3.792 27.696 290.56 31.728a16 16 0 0 1 13.84 19.632L667.2 633.648h3.408z m-168.32 71.744A30.56 30.56 0 0 1 471.792 736a30.544 30.544 0 0 1-30.512-30.608 30.56 30.56 0 0 1 30.512-30.608 30.56 30.56 0 0 1 30.496 30.608z m152.544 0A30.56 30.56 0 0 1 624.32 736a30.544 30.544 0 0 1-30.512-30.608 30.56 30.56 0 0 1 30.512-30.608 30.56 30.56 0 0 1 30.512 30.608z m-355.744 72.64l-51.84-54.816a26.352 26.352 0 0 1 0.112-36.32 23.84 23.84 0 0 1 34.544 0.112l97.344 102.912c3.568 3.776 4.96 8.832 4.16 13.6a16 16 0 0 1-4.08 14.048l-97.344 102.928a23.84 23.84 0 0 1-34.544 0.096 26.352 26.352 0 0 1-0.096-36.32l52.048-55.04H121.616a25.6 25.6 0 1 1 0-51.2h177.472z" fill="#666666" p-id="5884"></path></svg>