<?xml version="1.0" standalone="no"?><!DOCTYPE svg PUBLIC "-//W3C//DTD SVG 1.1//EN" "http://www.w3.org/Graphics/SVG/1.1/DTD/svg11.dtd"><svg t="1764832435714" class="icon" viewBox="0 0 1024 1024" version="1.1" xmlns="http://www.w3.org/2000/svg" p-id="18444" xmlns:xlink="http://www.w3.org/1999/xlink" width="200" height="200"><path d="M512 1024C229.681925 1024 0 794.318075 0 512S229.681925 0 512 0c170.349411 0 329.052415 84.380149 424.539353 225.713394l-52.814606 35.67854C800.11366 137.628149 661.147087 63.73444 512 63.73444 264.825095 63.73444 63.73444 264.825095 63.73444 512S264.825095 960.26556 512 960.26556 960.26556 759.174905 960.26556 512h63.73444c0 282.318075-229.681925 512-512 512z" p-id="18445" fill="#2c2c2c"></path><path d="M666.708979 426.226191V355.357743c0-74.22088-60.386257-134.602888-134.611386-134.602888h-10.273991c-74.22088 0-134.602888 60.382008-134.602888 134.602888v70.868448H310.174274v330.845477h433.576896v-330.845477h-77.042191z m-215.749577-70.868448c0-39.07771 31.790739-70.868448 70.868449-70.868448h10.273991c39.07771 0 70.876946 31.790739 70.876946 70.868448v70.868448h-152.015137V355.357743z m229.057328 337.979485H373.908714v-203.376597h306.108016v203.376597z" p-id="18446" fill="#2c2c2c"></path></svg>